<?xml version="1.0" encoding="utf-8"?>
<!-- Generator: Adobe Illustrator 16.0.4, SVG Export Plug-In . SVG Version: 6.00 Build 0)  -->
<!DOCTYPE svg PUBLIC "-//W3C//DTD SVG 1.1//EN" "http://www.w3.org/Graphics/SVG/1.1/DTD/svg11.dtd">
<svg version="1.1" id="Layer_1" xmlns="http://www.w3.org/2000/svg" xmlns:xlink="http://www.w3.org/1999/xlink" x="0px" y="0px"
	 width="123.792px" height="216.434px" viewBox="0 0 123.792 216.434" enable-background="new 0 0 123.792 216.434"
	 xml:space="preserve">
<g>
	<path fill="#FF79AF" d="M43.893,4.992c-13.008-8.64-29.476-5.844-38.791,6.677c-9.836,13.22-4.742,31.065,9.232,38.658
		c13.137,7.138,29.575,0.951,36.99-11.392C58.313,27.3,54.526,12.789,43.893,4.992z M39.759,44.251
		c-3.375,2.235-7.313,3.555-11.34,3.866c1.545-1.823,2.718-4.122,3.676-6.319c1.341-3.073,2.328-6.287,3.659-9.365
		c0.358-0.828,0.804-1.531,1.316-2.133C38.726,34.63,39.636,39.375,39.759,44.251z M41.369,9.311
		c1.551,1.137,2.878,2.434,4.003,3.841c-4.066,1.569-7.953,3.739-11.614,6.326c-0.962-1.197-2.001-2.324-3.117-3.373
		c1.937-3.118,2.581-6.705,1.856-10.526C35.62,6.251,38.652,7.506,41.369,9.311z M46.855,15.277
		c1.912,3.153,2.891,6.727,2.91,10.383c-4.097-1.105-8.317-1.053-11.642,0.774c-0.838-1.742-1.795-3.406-2.876-4.97
		C38.901,18.888,42.792,16.772,46.855,15.277z M29.821,5.143c0.801,3.402,0.333,6.574-1.141,9.249
		c-3.685-2.937-8.078-5.072-13.112-6.161C19.801,5.591,24.843,4.615,29.821,5.143z M9.419,14.192
		c1.014-1.507,2.175-2.813,3.443-3.938c5.657,0.788,10.484,2.987,14.423,6.183c-1.668,1.999-3.984,3.6-6.802,4.639
		c-5.702,2.101-10.684,3.345-15.262,6.839C5.151,23.259,6.556,18.446,9.419,14.192z M5.476,30.942
		c4.064-3.695,8.853-5.858,14.291-7.079c2.43-0.545,4.79-1.722,6.749-3.248c1.003-0.781,1.88-1.622,2.646-2.508
		c0.921,0.889,1.789,1.832,2.594,2.833c-7.87,6.03-14.563,13.98-19.482,22.102C8.463,39.825,6.205,35.547,5.476,30.942z
		 M14.289,44.546c4.755-7.898,11.276-15.708,18.95-21.601c1.069,1.562,2.01,3.229,2.822,4.979c-1.115,1.03-2.07,2.333-2.783,3.982
		c-1.936,4.479-3.707,13.277-8.482,16.218c-2.721-0.213-5.416-0.893-7.938-2.114C15.945,45.567,15.093,45.075,14.289,44.546z
		 M47.006,36.412c-1.258,2.311-2.916,4.297-4.824,5.967c-0.303-4.838-1.347-9.491-3.078-13.74c2.957-1.678,6.951-1.443,10.507-0.416
		C49.289,31.004,48.437,33.784,47.006,36.412z"/>
	<g>
		<path fill="#FF79AF" d="M123.77,208.569c-1.13-9.105-5.228-46.604-7.528-55.489c-1.844-7.123-4.191-14.718-8.531-20.768
			c10.957-12.474,14.329-33.462-1.053-43.343c-5.092-3.271-10.182-4.353-14.956-3.833c-2.335-5.932-3.063-13.004-4.549-18.875
			c-2.191-8.654-5.007-17.873-11.25-24.524c-3.481-3.709-15.963-10.017-18.673-2.351c-2.596,7.341,4.495,17.656,11.408,20.67
			c3.375,11.327,5.224,22.66,6.44,34.338c-5.531,6.208-9.082,14.691-9.272,22.944c-4.32-6.948-4.912-15.331-5.09-24.086
			c-0.22-10.774-0.264-23.988-10.96-30.079c-5.59-3.184-14.345-0.748-13.165,6.719c0.633,4.004,3.699,7.93,5.584,11.417
			c3.015,5.576,0.659,12.251-0.542,18.104c-2.003,9.766-1.892,17.897,2.603,26.873c4.132,8.252,9.382,16.398,15.473,23.348
			c4.771,5.442,3.611,16.483,3.673,23.169c0.104,11.118-0.499,30.095-0.526,41.213c-0.008,3.225,4.992,3.224,5,0
			c0.029-12.037,1.379-32.642,0.881-45.018c6.467,1.335,12.069-2.279,14.803-8.557c2.046-4.697,2.241-9.83,1.198-14.755
			c3.755,2.798,8.251,4.237,13.053,2.201c4.308-1.826,7.085-5.87,7.355-10.31c2.996,5.183,4.724,11.098,6.275,16.831
			c2.274,8.406,6.278,45.524,7.35,54.16C119.161,211.726,124.166,211.764,123.77,208.569z M67.6,53.523
			c-2.315-2.062-3.977-4.99-5.068-7.86c-0.534-1.404-1.804-4.598,0.422-4.619c2.423-0.023,4.682,0.784,6.733,2.013
			c8.107,4.853,10.763,17.105,12.894,25.523c1.411,5.575,2.2,11.994,4.229,17.67c-2.527,0.883-4.922,2.202-7.126,3.868
			c-0.376-3.626-0.804-7.247-1.353-10.854c-0.515-3.385-1.212-6.737-1.983-10.072c-0.874-3.778-1.535-8.947-3.5-12.302
			C71.907,55.285,69.027,54.795,67.6,53.523z M79.671,156.393c-1.35,5.687-5.692,9.11-11.282,7.327
			c-0.333-3.736-0.867-7.428-1.719-11.038c-1.437-6.09-6.932-10.776-10.34-15.834c-4.942-7.334-10.475-15.507-11.278-24.533
			c-0.875-9.83,6.296-20.64,2.956-30.263c-1.153-3.322-3.268-6.349-4.919-9.433c-0.625-1.168-2.202-3.495-1.56-4.881
			c1.451-3.129,7.113,0.53,8.422,1.732c8.382,7.697,5.352,23.359,6.203,33.559c0.773,9.27,4,17.537,11.02,23.633
			c1.575,4.626,4.551,8.816,9.245,12.023c0.176,0.109,0.353,0.201,0.53,0.305C79.862,144.336,81.122,150.283,79.671,156.393z
			 M95.973,143.271c-2.641,1.379-5.344,0.552-7.694-1.055c4.095-0.01,8.032-1.234,11.609-3.333
			C99.302,140.728,97.899,142.266,95.973,143.271z M78.941,134.367c-20.922-14.293,0.916-54.038,24.212-41.655
			C125.951,104.83,101.64,148.424,78.941,134.367z"/>
		<path fill="#FF79AF" d="M107.758,185.028c-0.984,0.534-1.967,1.067-2.951,1.602c0-8.7,0-17.399,0-26.099
			c0-0.512-0.522-0.728-0.94-0.54c-2.194,0.984-4.388,1.969-6.583,2.952c-0.192,0.087-0.313,0.339-0.31,0.54
			c0.053,3.053-2.764,4.855-5.27,5.829c-0.263,0.103-0.459,0.303-0.459,0.603c0,2.089,0,4.178,0,6.267
			c0,0.373,0.406,0.755,0.791,0.603c2.129-0.843,4.26-1.88,5.938-3.441c0,3.519,0,7.036,0,10.554c0,2.01,0,4.019,0,6.028
			c0-0.064-0.095-0.046-1.024,0.473c-0.96,0.536-1.92,1.072-2.88,1.607c-0.191,0.107-0.31,0.323-0.31,0.54c0,1.777,0,3.555,0,5.332
			c0,0.5,0.524,0.744,0.94,0.54c4.562-2.242,9.125-4.484,13.688-6.726c0.193-0.096,0.31-0.332,0.31-0.54c0-1.861,0-3.722,0-5.583
			C108.699,185.083,108.171,184.805,107.758,185.028z"/>
	</g>
</g>
</svg>
