<?xml version="1.0" encoding="utf-8"?>
<!-- Generator: Adobe Illustrator 16.0.4, SVG Export Plug-In . SVG Version: 6.00 Build 0)  -->
<!DOCTYPE svg PUBLIC "-//W3C//DTD SVG 1.1//EN" "http://www.w3.org/Graphics/SVG/1.1/DTD/svg11.dtd">
<svg version="1.1" id="Layer_3" xmlns="http://www.w3.org/2000/svg" xmlns:xlink="http://www.w3.org/1999/xlink" x="0px" y="0px"
	 width="214.51px" height="238.628px" viewBox="0 0 214.51 238.628" enable-background="new 0 0 214.51 238.628"
	 xml:space="preserve">
<path fill="#EE934D" d="M212.053,77.714c-19.273-0.753-37.545-6.273-48.887-22.743c-7.371-10.704-10.865-23.648-19.059-33.823
	c-9.341-11.599-22.929-10.925-35.607-5.453c-2.508,1.082-5.073,2.385-7.619,3.866c-0.047-0.233-0.081-0.471-0.131-0.703
	c-1.748-8.177-7.905-14.791-15.694-17.622c-8.841-3.214-18.959,0.411-26.89,4.394c-2.042,1.025-4.032,2.185-5.967,3.453
	c-2.146,1.163-4.172,2.563-6.011,4.215c-0.689,0.619-1.344,1.271-1.978,1.941C33.039,25.26,24.753,39.142,21.691,53.348
	c-4.193,19.457,6.996,39.244,27.71,41.429c13.243,1.396,27.519-2.835,39.114-9.298c8.293,1.383,16.588,2.766,24.881,4.147
	c0.174,2.294,0.616,4.533,1.058,6.32c0.508,2.053,1.652,3.848,2.741,5.627c1.833,2.997,1.905,6.561,1.958,9.975
	c0.209,13.728-3.836,26.756-7.839,39.739c-1.805-5.309-5.033-10.354-9.105-14.432c-0.146-0.203-0.324-0.382-0.53-0.528
	c-9.181-8.847-22.376-12.785-33.272-4.101c-0.827,0.659-1.59,1.341-2.296,2.043c-1.581-3.519-4.221-6.585-8.503-6.231
	c-4.32,0.357-7.809,3.921-9.952,7.416c-2.657,4.334-2.866,10.295,0.391,14.369c2.934,3.67,7.254,4.47,11.334,3.288
	c1.174,11.748,10.305,23.329,21.54,27.71c-16.676,2.616-29.851,16.036-45.93,20.662c-4.441,1.277-8,0.531-12.378-0.342
	c-3.835-0.765-7.833-0.21-11.484,1.076c-5.044,1.776-11.255,6.315-11.125,12.269c0.176,8.06,12.635,6.62,17.496,6.233
	c12.597-1.004,24.776-4.978,36.62-9.154c6.016-2.122,11.993-4.348,18.037-6.388c4.418-1.491,8.873-3.023,12.087,1.359
	c5.654,7.706,4.931,20.637,5.311,29.677c0.135,3.212,5.136,3.226,5,0c-0.209-4.971-0.164-13.173-1.574-20.658
	c0.072-0.215,0.127-0.441,0.144-0.696c0.486-7.562,1.519-15.183-0.053-22.121c8.085,4.14,17.467,3.905,25.568-2.929
	c4.06-3.424,5.421-7.725,5.048-12.088c1.614,2.084,3.136,4.228,4.525,6.42c0,0,0,0.001,0,0.001c1.743,3.898,2.313,8.339,2.646,12.53
	c0.938,11.81-0.459,23.844-1.972,35.541c-0.413,3.191,4.593,3.151,5,0c2.01-15.546,5.213-34.682-1.032-49.814
	c-0.062-0.256-0.157-0.517-0.325-0.781c-0.002-0.003-0.004-0.006-0.005-0.009c-2.532-5.729-5.973-6.991-4.06-13.37
	c2.984-9.952,7.062-19.51,9.014-29.759c1.98-10.396,0.921-20.872,1.988-31.31c0.401-3.926,1.225-8.355,1.2-12.607
	c2.231,0.372,4.463,0.743,6.694,1.116c3.153,0.525,4.504-4.292,1.329-4.822c-2.667-0.444-5.333-0.889-8-1.334
	c-0.197-0.033-0.388-0.045-0.57-0.038c-0.584-2.489-1.698-4.802-3.664-6.769c-3.968-3.97-16.967-7.853-21.189-2.303
	c-0.891,1.171-1.415,2.624-1.693,4.197c-8.167-1.361-16.335-2.723-24.502-4.084c-0.467-0.217-1.031-0.274-1.681-0.059
	c-0.011,0.004-0.021,0.007-0.032,0.01c-0.026,0.009-0.052,0.016-0.079,0.025c-8.319,2.739-17.822,3.667-26.435,2.144
	c-19.316-3.418-24.857-22.31-23.016-39.753c0.914-8.657,4.137-17.355,9.899-23.935c2.887-2.593,6.002-4.926,9.322-6.955
	c7.761-3.289,17.176-2.614,24.474,1.516c4.693,2.656,8.411,7.195,10.219,12.308c-6.614,5.315-12.296,11.852-15.296,19.085
	c-1.856,4.478-2.2,9.386,1.162,13.221c3.607,4.115,10.438,4.792,14.851,1.797c5.589-3.795,7.567-11.673,8.628-17.902
	c0.866-5.089,1.131-10.352,0.739-15.541c4.656-3.448,10.168-6.072,15.919-5.988c5.76,0.084,12.023,4.428,15.234,8.98
	c3.061,4.341,4.548,9.721,6.351,14.652c2.352,6.436,5.181,12.62,8.743,18.48c12.343,20.31,43.189,25.128,64.646,20.013
	C215.548,81.949,214.801,77.821,212.053,77.714z M88.122,42.767c0.929-2.882,2.631-5.47,4.635-7.82
	c-0.208,1.527-0.593,3.043-1.229,4.514c-0.939,2.171-2.446,4.078-4.103,5.771C87.592,44.394,87.861,43.575,88.122,42.767z
	 M101.321,174.013c-8.563,5.909-18.603,3.676-26.091-2.234c4.451-4.909,5.867-11.524,2.577-16.718
	c4.489-0.802,9.071-1.193,13.357-2.788c4.716-1.755,7.733-5.303,9.767-9.563C108.985,152.164,111.978,165.926,101.321,174.013z
	 M51.576,146.2c-1.807-2.707-0.862-6.169,0.7-8.718c1.13-1.844,2.923-3.612,4.999-4.318c2.745-0.935,4.07,2.296,4.767,4.348
	c0.145,0.426,0.369,0.757,0.636,1.02c-1.836,2.912-2.877,6.04-3.257,9.235C56.608,149.126,53.532,149.132,51.576,146.2z
	 M70.216,137.196c8.202-7.759,18.957-5.114,26.929,1.717c-1.916,4.894-4.906,8.035-10.257,9.477
	c-4.755,1.281-9.736,1.436-14.5,2.745c-2.248,0.618-2.271,3.348-0.597,4.569c4.752,3.471,3.079,8.96-0.228,12.67
	C63.528,159.612,60.508,146.381,70.216,137.196z M78.001,198.544c-4.604,0.145-9.406,2.552-13.68,4.062
	c-5.518,1.949-11.005,3.98-16.54,5.88c-12.112,4.155-24.521,7.407-37.396,7.561c-11.298,0.135-0.616-8.28,4.148-9.677
	c4.271-1.252,7.944,0.184,12.129,0.765c3.626,0.503,7.255-0.14,10.74-1.142c16.122-4.638,29.367-19.127,46.451-20.512
	c0.306,0.345,0.618,0.682,0.934,1.011c4.028,5.216,4.503,11.478,4.164,17.896C86.556,200.735,83.084,198.385,78.001,198.544z
	 M115.103,186.274c-8.318,8.257-19.557,3.885-26.646-3.216c-0.111-0.138-0.219-0.276-0.334-0.413
	c-0.002-0.032-0.004-0.064-0.007-0.096c5.238,0.484,10.65-0.715,15.73-4.221c4.633-3.516,7.299-7.84,8.423-12.467
	C118.073,171.257,121.532,179.892,115.103,186.274z M122.617,82.879c5.564,0.397,11.444,2.441,12.746,8.266
	c1.067,4.771-0.188,10.229-0.778,14.992c-1.322,10.665-0.098,21.4-2.126,32.049c-1.913,10.041-6.039,19.46-8.962,29.209
	c-0.193,0.644-0.329,1.245-0.436,1.826c-2.607-2.851-5.395-5.521-8.358-7.896c-0.16-0.129-0.325-0.232-0.492-0.317
	c-0.162-0.137-0.323-0.275-0.487-0.407c3.134-10.694,6.897-21.305,8.979-32.262c1.65-8.688,3.187-19.812-0.547-28.105
	c-1.526-3.39-3.151-5.552-3.503-9.47c-0.086-0.957-0.187-1.928-0.223-2.848c0.122-0.456,0.129-0.929,0.006-1.355
	C118.571,84.302,119.454,82.652,122.617,82.879z"/>
</svg>
