<?xml version="1.0" encoding="utf-8"?>
<!-- Generator: Adobe Illustrator 16.0.4, SVG Export Plug-In . SVG Version: 6.00 Build 0)  -->
<!DOCTYPE svg PUBLIC "-//W3C//DTD SVG 1.1//EN" "http://www.w3.org/Graphics/SVG/1.1/DTD/svg11.dtd">
<svg version="1.1" id="Layer_1" xmlns="http://www.w3.org/2000/svg" xmlns:xlink="http://www.w3.org/1999/xlink" x="0px" y="0px"
	 width="145.393px" height="138.343px" viewBox="0 0 145.393 138.343" enable-background="new 0 0 145.393 138.343"
	 xml:space="preserve">
<g>
	<path fill="#75DDFF" d="M134.17,8.337C118.108-3.868,92.589,7.893,86.03,25.202c-2.305,6.083-2.609,12.29-1.944,18.717
		c0.635,6.136,2.903,12.098,3.407,18.203c0.394,4.757-1.491,9.922-2.933,14.372c-0.454,1.401-0.95,2.791-1.469,4.174
		c-0.339,0.286-0.666,0.604-0.981,0.956C71.763,68.551,65.113,52.479,49.591,44.668c1.94-3.51,3.137-7.486,3.773-11.422
		c1.328-8.216,0.146-15.686-5.164-22.288C42.236,3.542,33.509-0.888,23.893,0.15c-0.118,0.013-0.222,0.044-0.332,0.069
		c-0.11,0.004-0.218,0.001-0.333,0.02C9.202,2.465,0.52,13.965,0.02,27.818c-0.43,11.914,6.151,23.867,17.467,27.959
		c-7.357,7.859-9.981,19.992-3.665,29.446c1.977,13.348,2.474,36.926,2.508,50.4c0.008,3.224,5.008,3.225,5,0
		c-0.029-11.572-0.462-33.179-1.775-44.685c2.1,1.477,4.381,2.752,6.484,4.01c5.399,3.231,11.133,5.896,16.843,8.522
		c5.811,2.673,11.659,5.255,17.394,8.089c0.77,0.381,1.55,0.812,2.339,1.263c-0.001,2.049,0.788,21.105,0.732,23.103
		c-0.09,3.227,4.911,3.218,5,0c0.03-1.069-0.78-19.182-0.766-20.264c2.433,1.287,4.95,2.323,7.558,2.462
		c6.81,0.361,11.248-4.194,14.711-9.521c1.372-2.11,1.774-4.638,0.896-6.665c0.743-0.753,1.351-1.694,1.754-2.854
		c1.197-3.182,1.844-7.254,1.267-10.942c3.956-6.78,9.425-13.834,16.085-16.57c9.036-3.712,17.934-6.017,25.058-13.155
		C148.116,45.182,149.896,20.287,134.17,8.337z M139.907,27.191c-0.029,0.051-0.059,0.102-0.088,0.152
		c-2.163-1.242-4.327-2.484-6.49-3.727c1.095-1.896,2.188-3.791,3.283-5.687C138.318,20.697,139.364,23.904,139.907,27.191z
		 M119.58,27.845c1.319-2.321,2.639-4.644,3.958-6.966c2.124,1.22,4.249,2.439,6.373,3.659c-1.327,2.3-2.655,4.601-3.982,6.9
		C123.812,30.24,121.696,29.043,119.58,27.845z M124.678,33.604c-1.309,2.267-2.616,4.533-3.925,6.8
		c-2.096-1.187-4.191-2.372-6.286-3.559c1.292-2.275,2.585-4.551,3.878-6.826C120.457,31.214,122.567,32.408,124.678,33.604z
		 M117.405,26.613c-2.136-1.208-4.271-2.417-6.406-3.626c1.31-2.381,2.607-4.738,3.893-7.072c2.16,1.239,4.319,2.479,6.479,3.72
		C120.048,21.961,118.726,24.287,117.405,26.613z M116.169,28.787c-1.292,2.275-2.585,4.551-3.878,6.826
		c-2.093-1.185-4.186-2.369-6.278-3.554c1.264-2.3,2.524-4.595,3.781-6.881C111.919,26.381,114.044,27.584,116.169,28.787z
		 M111.057,37.787c-1.25,2.2-2.5,4.4-3.75,6.6c-2.036-1.188-4.071-2.378-6.107-3.567c1.2-2.183,2.402-4.371,3.61-6.568
		C106.892,35.43,108.974,36.608,111.057,37.787z M103.837,30.828c-1.844-1.044-3.688-2.088-5.533-3.132
		c1.276-2.285,2.552-4.57,3.827-6.855c1.829,1.035,3.658,2.07,5.487,3.106C106.362,26.233,105.101,28.528,103.837,30.828z
		 M102.634,33.02c-1.202,2.188-2.399,4.366-3.594,6.538c-1.849-1.08-3.698-2.161-5.548-3.241c1.198-2.146,2.396-4.292,3.594-6.438
		C98.935,30.926,100.785,31.973,102.634,33.02z M97.836,41.749c-1.07,1.946-2.131,3.871-3.185,5.784
		c-1.824-1.058-3.648-2.115-5.472-3.173c-0.013-0.084-0.026-0.166-0.038-0.249c1.044-1.871,2.088-3.741,3.132-5.611
		C94.128,39.583,95.982,40.666,97.836,41.749z M93.446,49.724c-0.704,1.276-1.395,2.524-2.087,3.779
		c-0.574-1.264-1.018-2.645-1.306-4.216c0-0.002-0.001-0.003-0.001-0.004c-0.115-0.573-0.229-1.146-0.337-1.723
		C90.958,48.281,92.202,49.003,93.446,49.724z M95.608,50.979c1.994,1.156,3.989,2.313,5.983,3.47
		c-1.223,2.152-2.446,4.306-3.669,6.458c-2.114-1.5-3.816-3.057-5.107-4.87C93.737,54.367,94.665,52.688,95.608,50.979z
		 M96.815,48.788c1.053-1.911,2.111-3.834,3.18-5.777c2.026,1.184,4.052,2.367,6.077,3.55c-1.081,1.905-2.164,3.81-3.245,5.714
		C100.823,51.112,98.819,49.95,96.815,48.788z M108.231,47.822c2.054,1.2,4.107,2.399,6.162,3.6c-1.09,1.889-2.18,3.776-3.27,5.665
		c-2.045-1.187-4.09-2.372-6.135-3.558C106.07,51.627,107.15,49.725,108.231,47.822z M109.465,45.648
		c1.256-2.21,2.512-4.42,3.767-6.63c2.091,1.184,4.182,2.366,6.271,3.55c-1.287,2.229-2.574,4.459-3.86,6.688
		C113.583,48.054,111.525,46.852,109.465,45.648z M121.679,43.8c2.172,1.229,4.343,2.458,6.515,3.688
		c-1.31,2.27-2.619,4.538-3.929,6.808c-2.154-1.26-4.31-2.518-6.464-3.777C119.094,48.278,120.386,46.039,121.679,43.8z
		 M122.929,41.635c1.308-2.267,2.616-4.533,3.925-6.8c2.171,1.229,4.343,2.458,6.514,3.688c-1.309,2.267-2.616,4.533-3.925,6.8
		C127.272,44.093,125.1,42.864,122.929,41.635z M128.104,32.67c1.325-2.296,2.65-4.592,3.976-6.887
		c2.163,1.241,4.326,2.483,6.49,3.726c-1.317,2.283-2.635,4.565-3.953,6.849C132.446,35.128,130.275,33.899,128.104,32.67z
		 M130.667,11.994c1.7,1.01,3.127,2.282,4.335,3.726c-1.28,2.218-2.561,4.436-3.841,6.653c-2.129-1.223-4.259-2.445-6.388-3.668
		c1.434-2.524,2.868-5.049,4.302-7.572C129.615,11.397,130.146,11.685,130.667,11.994z M118.901,8.65
		c2.682,0.094,5.335,0.592,7.852,1.51c-1.383,2.434-2.766,4.867-4.147,7.301c-2.169-1.245-4.338-2.49-6.507-3.736
		C117.044,12.009,117.975,10.324,118.901,8.65z M116.013,8.709c-0.692,1.252-1.38,2.496-2.083,3.771
		c-1.48-0.85-2.96-1.699-4.439-2.549C111.609,9.271,113.804,8.863,116.013,8.709z M112.723,14.67
		c-1.288,2.339-2.588,4.701-3.9,7.086c-1.824-1.032-3.648-2.065-5.473-3.098c1.32-2.365,2.641-4.73,3.961-7.096
		C109.115,12.599,110.919,13.635,112.723,14.67z M103.14,12.804c0.295-0.182,0.601-0.345,0.902-0.515
		c-0.956,1.712-1.912,3.425-2.868,5.138c-0.807-0.457-1.614-0.914-2.421-1.37C100.093,14.881,101.545,13.785,103.14,12.804z
		 M96.866,17.86c1.03,0.583,2.061,1.166,3.091,1.749c-1.275,2.285-2.552,4.57-3.827,6.855c-1.303-0.737-2.605-1.475-3.908-2.212
		C93.455,21.943,95.005,19.801,96.866,17.86z M91.139,26.513c1.258,0.712,2.515,1.423,3.771,2.135
		c-1.192,2.136-2.384,4.271-3.576,6.407c-0.748-0.437-1.495-0.873-2.242-1.31C89.474,31.219,90.165,28.8,91.139,26.513z
		 M88.808,36.475c0.436,0.255,0.871,0.51,1.308,0.764c-0.456,0.817-0.912,1.635-1.368,2.451
		C88.713,38.604,88.74,37.533,88.808,36.475z M79.207,85.939c-0.568,1.024-1.084,2.026-1.555,2.891
		c-4.082-3.216-7.985-6.568-11.806-10.045c1.1-2.338,2.24-4.66,3.467-6.933C72.497,76.636,75.623,81.497,79.207,85.939z
		 M74.536,97.355c0.086,0.458,0.245,0.895,0.447,1.313c-2.932,0.037-5.533-0.612-8.25-1.639c-0.531-4.423-1.33-8.804-2.54-13.042
		l10.891,9.127C74.493,94.341,74.207,95.615,74.536,97.355z M24.25,5.123c5.746-0.533,10.827,1.073,15.161,4.268
		c-6.643,4.659-18.184,9.466-33.02,10.434C9.095,12.109,15.669,6.59,24.25,5.123z M5.129,30.434
		c19.405-0.465,28.713-4.172,41.527-12.827c2.619,5.135,2.598,10.883,1.436,16.845C45.403,48.243,31.683,55.508,18.468,50.93
		C9.976,47.987,5.792,38.948,5.129,30.434z M42.175,52.775c-0.329,3.139-2.245,5.825-5.389,7.022
		c-3.749,1.428-7.431-0.161-10.472-2.503c5.303-0.028,10.727-1.503,15.143-4.065C41.705,53.086,41.937,52.928,42.175,52.775z
		 M25.525,88.72c-1.374-0.868-2.736-1.757-4.07-2.696c-1.204-0.848-2.188-1.872-2.993-3.013c-0.122-0.337-0.304-0.605-0.528-0.807
		c-1.825-3.019-2.515-6.729-2.528-10.299c-0.019-5.095,2.125-9.389,5.464-12.721c4.924,4.619,11.381,7.667,18.152,5.089
		c6.278-2.391,8.786-8.871,7.937-15.13c-0.012-0.089-0.04-0.161-0.058-0.243c8.39,4.202,14.146,11.006,19.331,18.417
		c-0.17,0.165-0.33,0.353-0.465,0.592c-1.348,2.388-2.574,4.849-3.754,7.329c-0.632-0.595-1.267-1.18-1.898-1.78
		c-0.705-1.035-1.856-1.131-2.808-0.672c-1.348,0.573-2.242,2.256-1.252,3.638c2.785,5.702,4.444,11.936,5.402,18.329
		c-9.668-4.488-18.714-10.4-27.693-16.081c-2.733-1.73-5.24,2.599-2.523,4.316c0.541,0.342,1.088,0.695,1.635,1.046
		C30.75,86.079,28.339,87.782,25.525,88.72z M86.11,104.972c-1.402,4.654-6.939,8.826-11.652,8.008
		c-4.44-0.771-9.182-4.513-13.227-6.511c-4.69-2.318-9.483-4.432-14.246-6.594c-5.504-2.499-10.964-5.082-16.222-8.029
		c2.363-1.33,4.499-3.072,6.401-5.027c11.084,7.242,23.229,15.204,36.024,17.19C74.686,104.241,87.254,101.168,86.11,104.972z
		 M87.678,97.754c-0.154,0.444-0.4,0.769-0.704,1.008c-1.824-0.627-3.809-0.747-5.779-0.643c-3.318-1.91-0.907-3.897,0.524-6.257
		c0.801-1.32,3.799-8.11,5.064-7.124C90.374,87.536,89.018,94.194,87.678,97.754z M101.889,70.745
		c-3.91,3.178-7.424,7.332-10.399,11.764c-0.727-0.942-1.62-1.771-2.729-2.423c-0.037-0.021-0.073-0.037-0.11-0.058
		c1.13-3.229,2.103-6.509,2.876-9.813c0.672-2.87,0.791-5.664,0.611-8.427c3.584,3.462,8.152,5.755,13.135,6.673
		C104.101,69.126,102.965,69.87,101.889,70.745z M100.015,62.283c1.246-2.193,2.492-4.387,3.738-6.581
		c2.04,1.184,4.08,2.366,6.12,3.55c-1.036,1.795-2.073,3.591-3.109,5.386C104.476,64.312,102.222,63.558,100.015,62.283z
		 M109.542,64.827c0.831-1.44,1.663-2.881,2.494-4.321c1.71,0.991,3.419,1.983,5.129,2.975
		C114.595,64.336,112.05,64.817,109.542,64.827z M119.762,62.097c-2.159-1.252-4.317-2.504-6.477-3.756
		c1.089-1.886,2.177-3.771,3.266-5.657c2.155,1.259,4.31,2.518,6.464,3.776C121.931,58.339,120.846,60.218,119.762,62.097z
		 M123.499,60.8c-0.048,0.026-0.098,0.05-0.146,0.076c0.606-1.052,1.214-2.104,1.821-3.155c0.549,0.321,1.099,0.642,1.647,0.963
		C125.753,59.454,124.644,60.162,123.499,60.8z M128.93,57.02c-0.836-0.487-1.671-0.976-2.507-1.464
		c1.315-2.279,2.631-4.558,3.946-6.837c1.37,0.775,2.739,1.551,4.109,2.326C132.879,53.25,131.008,55.259,128.93,57.02z
		 M135.88,48.966c-1.42-0.804-2.841-1.608-4.262-2.412c1.309-2.267,2.616-4.533,3.925-6.8c1.195,0.677,2.392,1.354,3.588,2.03
		C138.369,44.31,137.261,46.72,135.88,48.966z M139.755,39.266c-0.987-0.56-1.976-1.118-2.963-1.677
		c1.181-2.046,2.361-4.092,3.543-6.138c0.061,1.55,0.029,3.086-0.096,4.565C140.147,37.114,139.975,38.196,139.755,39.266z"/>
</g>
</svg>
