<?xml version="1.0" encoding="utf-8"?>
<!-- Generator: Adobe Illustrator 16.0.4, SVG Export Plug-In . SVG Version: 6.00 Build 0)  -->
<!DOCTYPE svg PUBLIC "-//W3C//DTD SVG 1.1//EN" "http://www.w3.org/Graphics/SVG/1.1/DTD/svg11.dtd">
<svg version="1.1" id="Layer_1" xmlns="http://www.w3.org/2000/svg" xmlns:xlink="http://www.w3.org/1999/xlink" x="0px" y="0px"
	 width="133.466px" height="164.722px" viewBox="0 0 133.466 164.722" enable-background="new 0 0 133.466 164.722"
	 xml:space="preserve">
<path fill="#AF8FEA" d="M128.392,137.539c-4.311-2.709-8.483-5.625-12.664-8.527c0.934-1.116,1.786-2.287,2.517-3.517
	c3.976-6.692,5.188-15.697,6.942-23.171c1.714-7.295,3.37-15.106,2.655-22.636c-1.152-12.127-12.595-17.295-22.719-21.382
	c2.562-2.39,4.484-5.359,5.768-8.648c2.187-0.169,4.457-1.853,6.28-5.37c3.755-7.242,5.598-24.39,2.37-29.482
	c-9.136-14.416-32.163-15.082-44-7.082c-7.094,4.793-9.413,12.772-8.942,25.494c-0.468,4.711,0.036,9.641,1.072,14.107
	c-7.272-1.882-14.605-1.594-21.285,2.704C39.7,54.331,35.344,61.674,31.33,68.376c-3.411-3.445-6.808-6.956-9.7-10.849
	c-0.913-1.229-2.866-3.684-2.622-5.251c0.593-3.822,2.911-7.939,4.36-11.511c2.387-5.88,4.935-11.693,7.449-17.519
	c1.537-3.562,5.473-9.037,4.721-13.079c-0.581-3.122-3.216-5.257-5.683-6.977c-4.064-2.832-12.167-5.703-14.551,0.513
	c-2.697,7.033-4.868,14.302-7.181,21.467C6.63,29.8,5.161,34.437,3.712,39.079c-1.25,4.005-3.135,8.319-3.676,12.486
	c-0.631,4.856,7.265,11.148,10.153,14.059c5.335,5.375,10.991,10.599,17.055,15.162c0,0.022,0,0.047,0.001,0.069
	c-0.283,0.124-0.561,0.31-0.819,0.582c-6.327,6.656-15.02,26.237-3.845,32.62c4.997,2.854,12.285-0.614,16.708-4.344
	c0.372,6.752,1.892,41.852,1.893,48.594c0,3.225,5,3.225,5,0c-0.001-9.207-1.454-46.818-2.5-55.979
	c0.11-0.493,0.219-0.991,0.341-1.494c0.268-1.104,1.15-1.754,2.306-2.215c9.093,6.366,17.939,13.021,27.306,18.977
	c0.524,2.681,2.841,4.897,4.803,6.783c-0.429,8.776,5.775,14.292,14.412,14.996c3.519,0.287,7.046-0.286,10.365-1.505
	c-2.743,8.06-1.198,16.926,0.824,25.066c0.778,3.128,5.6,1.8,4.822-1.33c-1.877-7.548-3.762-16.43-0.297-23.796
	c2.93,1.874,5.857,3.753,8.768,5.658c3.635,2.379,9.281,8.197,13.843,5.217C136.247,145.371,131.799,139.68,128.392,137.539z
	 M73.995,25.5c11.449,7.136,29.712,2.881,29.188,7.806c-0.705,6.622,0.772,11.614,3.132,14.259
	c-2.009,4.921-5.739,8.992-11.162,10.86c-5.094,1.756-10.891,1.573-15.667-0.972c-4.205-2.241-5.739-6.521-6.866-10.832
	C70.907,40.072,70.518,31.573,73.995,25.5z M94.9,63.647c-4.72,5.725-9.499,11.497-14.948,16.439
	c-0.121-0.435-0.221-0.878-0.334-1.287c-0.783-2.848-1.271-5.786-1.771-8.694c-0.511-2.981-0.947-5.976-1.353-8.974
	C81.653,64.459,88.346,65.274,94.9,63.647z M47.627,55.29c6.382-5.427,14.535-4.713,21.919-2.181c0.36,0.77,0.758,1.5,1.192,2.19
	c0.763,6.105,1.584,12.204,2.66,18.264c0.569,3.21,1.143,12.146,5.692,12.57c3.963,0.37,8.994-7.19,11.175-9.622
	c4.107-4.58,8.05-9.301,12.035-13.986c8.851,3.511,19.63,7.574,20.647,18.28c0.582,6.134-0.912,12.521-2.195,18.474
	c-1.479,6.861-3.281,13.725-5.359,20.429c-0.755,2.435-2.04,4.627-3.686,6.535c-2.152-1.471-4.323-2.915-6.525-4.312
	c0.019-0.111,0.052-0.22,0.065-0.332c0.424-3.585-2.096-5.866-4.68-7.889c-1.873-1.467-3.981-2.855-6.222-3.926
	c1.675-0.431,3.629-0.403,5.117-0.644c4.097-0.659,7.481-2.96,10.254-5.948c2.189-2.359-1.338-5.903-3.535-3.535
	c-3.326,3.584-6.733,4.509-11.387,5.094c-2.752,0.347-4.924,1.206-6.668,3.138c-0.022-0.002-0.044-0.008-0.066-0.011
	c-2.605-0.293-4.49,0.266-6.339,1.242c-8.665-6.076-17.141-12.415-25.836-18.446c-0.108-4.84-4.411-9.805-7.55-12.866
	c-2.635-2.57-7.271-7.126-11.698-8.541C39.742,64.171,43.037,59.194,47.627,55.29z M15.41,63.753
	c-2.841-2.754-11.192-9.061-9.921-13.37C9.832,35.659,14.483,20.966,19.596,6.49c0.885-2.506,3.015-1.38,5.156-0.432
	c1.569,0.694,3.02,1.673,4.307,2.8c2.096,1.834,1.261,2.976,0.245,5.349c-3.95,9.229-8.025,18.409-11.765,27.728
	c-1.786,4.45-4.723,9.168-2.68,13.945c2.789,6.522,8.87,11.964,13.785,16.891c-0.322,0.698-0.581,1.445-0.781,2.215
	C23.5,71.499,19.405,67.624,15.41,63.753z M38.924,100.961c-0.172,0.304-0.26,0.679-0.246,1.119
	c-0.908,4.25-9.312,9.465-13.573,7.66c-3.691-1.563-2.568-8.329-1.982-11.242c0.844-4.199,2.651-8.312,5.297-11.712
	c1.942,5.389,6.062,9.842,10.777,13.169C39.097,100.283,39.007,100.619,38.924,100.961z M44.943,93.919
	c-1.334,0.368-2.381,0.96-3.218,1.718c-4.659-3.334-8.162-7.646-9.338-13.456c-0.213-1.047,0.06-9.262,2.035-8.36
	c4.185,1.909,7.957,5.16,11.214,8.338c1.968,1.919,3.804,4.147,4.798,6.736C52.011,93.001,47.807,93.128,44.943,93.919z
	 M75.683,112.98c-7.96-5.091-15.552-10.676-23.247-16.146c0.716-0.311,1.332-0.708,1.786-1.24
	c7.703,5.37,15.251,10.956,22.916,16.38C76.654,112.282,76.153,112.614,75.683,112.98z M82.418,121.258
	c-0.811-0.807-1.614-1.614-2.392-2.453c-0.446-0.481-1.314-2.247-1.608-1.62c0.427-0.912,2.703-1.825,3.513-2.371
	c2.27-1.53,3.613-2.38,6.478-1.832c2.939,0.562,5.608,2.229,8.053,3.871c1.387,0.932,4.267,2.558,3.736,4.63
	c-0.389,1.515-2.486,2.568-3.778,3.093c-4.579,1.86-9.537,0.507-13.185-2.559C83.041,121.68,82.757,121.428,82.418,121.258z
	 M96.317,134.302c-5.737,0.676-10.645-1.322-12.298-5.877c3.734,1.837,7.914,2.41,11.966,1.448c0.029,0.019,0.054,0.041,0.084,0.06
	c1.723,1.064,3.43,2.153,5.146,3.229C99.604,133.708,97.96,134.108,96.317,134.302z M125.903,143.13
	c-8.076-5.312-16.187-10.565-24.386-15.683c0.454-0.331,0.886-0.699,1.285-1.103c4.141,2.625,8.175,5.405,12.202,8.205
	c2.541,1.766,5.093,3.513,7.666,5.23c1.247,0.832,5.483,2.957,5.671,4.43C128.426,144.868,125.93,143.147,125.903,143.13z"/>
</svg>
