<?xml version="1.0" encoding="utf-8"?>
<!-- Generator: Adobe Illustrator 16.0.4, SVG Export Plug-In . SVG Version: 6.00 Build 0)  -->
<!DOCTYPE svg PUBLIC "-//W3C//DTD SVG 1.1//EN" "http://www.w3.org/Graphics/SVG/1.1/DTD/svg11.dtd">
<svg version="1.1" id="Layer_3" xmlns="http://www.w3.org/2000/svg" xmlns:xlink="http://www.w3.org/1999/xlink" x="0px" y="0px"
	 width="209.263px" height="157.145px" viewBox="0 0 209.263 157.145" enable-background="new 0 0 209.263 157.145"
	 xml:space="preserve">
<path fill="#82C969" d="M207.172,40.891c4.518-13.386,1.926-30.466-9.864-37.343c-6.475-3.776-15.293-4.597-22.473-2.179
	c-7.768,2.616-12.338,9.835-14.956,17.173c-2.299,7.491-2.349,18.256,1.04,26.81c-4.172-1.923-8.535-3.418-12.974-4.656
	c-12.245-3.417-25.166-4.752-37.839-5.227c-2.161-0.081-5.019-0.604-7.159-0.015c-0.419,0.115-0.83,0.347-1.231,0.647
	c-2.22-0.401-4.437-0.844-6.647-1.355c-5.827-1.349-13.099-3.857-18.931-1.326c-7.125,3.093-5.429,12.621-2.764,18.243
	c3.71,7.826,13.419,3.122,18.974,0.787c1.225-0.515,2.151-0.72,3.007-0.741c0.002,0.011,0.003,0.022,0.005,0.033
	c0.414,2.097,2.379,3.284,4.219,3.895c4.012,1.33,8.649,1.661,12.81,2.39c8.313,1.457,16.546,3.142,24.701,5.303
	c-0.066,4.546-0.538,9.218-2.829,13.204c-0.629,1.095-1.523,1.811-2.572,2.26c-0.033,0.015-0.068,0.023-0.101,0.04
	c-3.183,1.298-7.744,0.195-10.753-0.403c-9.812-1.952-19.152-6.249-28.062-10.661c-8.826-4.371-17.363-9.308-25.86-14.278
	c-5.239-3.063-10.454-6.535-16.109-8.799c-1.731-0.692-3.161-0.755-4.35-0.356c-1.801-2.746-2.291-6.213-3.795-9.126
	c-3.266-6.321-12.019-6.112-17.769-3.846C18.06,34.056,11.621,38.43,6.128,43.255c-3.793,3.333-8.632,8.924-4.618,13.835
	c5.604,6.854,19.399,1.128,26.662,2.41c4.606,0.812,9.161,3.506,13.377,6.425c0.323,3.51,0.833,6.444,1.224,7.813
	c0.647,2.265,1.678,4.842,3.583,6.34c1.815,1.427,4.691,1.604,6.833,2.455c10.12,4.023,19.687,9.773,29.349,14.76
	c6.997,3.61,14.042,7.128,21.212,10.383c6.659,3.022,13.186,5.845,19.199,10.077c12.351,8.694,18.128,22.136,18.295,36.974
	c0.036,3.223,5.036,3.226,5,0c-0.119-10.53-2.565-20.65-8.645-29.363c-5.81-8.325-14.458-14.165-23.47-18.536
	c-11.538-5.597-23.203-10.793-34.597-16.717c-8.664-4.504-17.282-9.502-26.441-12.952c-2.269-0.854-3.571-0.401-4.729-2.652
	c-1.696-3.3-2.02-7.568-2.259-11.194c-0.239-3.614-0.112-7.316,0.743-10.845c0.511-2.107,1.047-3.637,2.793-2.889
	c6.096,2.613,11.773,6.498,17.486,9.829c8.68,5.062,17.452,9.971,26.508,14.333c9.088,4.378,18.703,8.429,28.735,10.006
	c4.786,8.682,12.532,15.79,20.221,21.854c8.589,6.772,18.512,12.715,29.336,14.941c-3.529,10.623-4.763,21.539-3.958,32.859
	c0.228,3.197,5.229,3.219,5,0c-0.817-11.489,0.63-22.199,4.278-32.854c3.406,1.015,7.371,1.045,10.376,0.925
	c4.601-0.185,9.301-1.98,11.685-6.096c1.424-2.46,1.227-5.213,0.516-7.931c1.145-0.634,1.839-2.109,1.986-3.619
	c0.534-5.483,0.284-10.787,1.731-16.185c0.696-2.593,1.512-5.237,2.016-7.906c0.885-2.741,0.936-5.669,0.05-8.37
	c-0.023-0.102-0.04-0.202-0.066-0.304c-0.077-0.302-0.2-0.55-0.343-0.771c-0.283-0.655-0.618-1.294-1.021-1.907
	c-2.708-4.123-7.727-5.957-7.988-11.45c-0.02-0.421-0.146-0.766-0.312-1.073c0.066-0.141,0.118-0.283,0.155-0.429
	C201.059,52.22,205.031,47.236,207.172,40.891z M96.864,43.182c-0.61,1.152-1.073,2.357-1.366,3.592
	c-5.801,0.725-13.026,6.941-17.083,3.393c-2.568-2.248-3.856-10.224-0.339-12.174c2.975-1.648,7.953-0.181,11.005,0.481
	c3.099,0.672,6.234,1.236,9.388,1.738C97.817,41.334,97.267,42.422,96.864,43.182z M41.243,60.102
	c-0.281-0.177-0.557-0.359-0.839-0.533c-4.952-3.048-9.823-5.144-15.68-5.451c-5.579-0.293-10.979,1.786-16.565,0.747
	c-3.825-0.712-3.677-2.332-1.504-5.018c2.596-3.208,6.106-5.715,9.494-8.008c4.739-3.208,15.068-10.284,20.883-5.76
	c2.261,1.759,2.768,5.569,3.787,8.082c0.592,1.46,1.328,2.676,2.189,3.754C41.616,51.022,41.191,55.604,41.243,60.102z
	 M128.55,84.284c1.011-0.043,1.946-0.183,2.817-0.398c10.304,12.313,23.642,22.035,38.534,28.029
	c-0.001,1.043,0.201,2.1,0.654,3.155c-9.427-2.535-17.959-7.905-25.569-13.905C138.946,96.402,132.88,90.802,128.55,84.284z
	 M187.625,116.472c-3.802,0.377-13.716,0.269-12.34-5.624c0.854-3.657,4.374-6.34,7.875-7.919c0.241-0.053,0.485-0.13,0.733-0.269
	c0.201-0.111,0.396-0.19,0.595-0.283c0.534-0.2,1.06-0.375,1.567-0.521c0.081-0.023,0.148-0.059,0.223-0.087
	c2.032-0.404,3.966,0.141,6.016,1.344c0.454,0.267,0.852,0.604,1.226,0.972c0.333,1.047,0.698,2.116,1.066,3.267
	C196.47,113.241,193.339,115.904,187.625,116.472z M200.727,72.423c1.426,5.675-1.657,11.773-2.813,17.257
	c-0.753,3.571-0.803,7.23-0.923,10.868c-0.167-0.172-0.333-0.345-0.508-0.504c-1.299-1.177-3.008-2.227-4.689-2.75
	c-1.922-0.599-3.746-0.791-5.531-0.582c0.656-2.576,3.538-14.157,2.752-15.84c-0.885-1.896-3.375-0.722-3.737,1.28
	c-1.045,5.779-2.772,11.262-4.777,16.649c-3.561,1.901-7.263,4.884-9.212,8.312c-13.606-5.5-25.753-14.443-35.347-25.527
	c5.045-4.234,6.19-12.71,6.156-20.193c-0.005-1.112-0.759-2.115-1.835-2.411c-12.971-3.562-26.202-5.466-39.354-8.167
	c-3.253-0.668,2.69-9.055,3.344-9.892c0.333-0.427-1.231-0.567,0.698-0.562c3.125,0.009,6.25,0.133,9.369,0.303
	c10.454,0.566,20.878,1.945,31.034,4.518c5.54,1.403,10.949,3.309,16.036,5.923c3.638,1.87,2.929,6.06,3.029,9.788
	c0.115,4.273-0.144,8.56-0.174,12.834c-0.012,1.667,1.6,2.786,3.165,2.411c9.831-2.362,16.509-10.374,24.107-16.599
	c0.406,2.021,1.209,3.888,2.614,5.552C196.204,67.547,199.366,69.434,200.727,72.423z M169.371,59.117
	c-0.02-0.717-0.017-1.761-0.059-2.916c1.347,0.864,2.82,1.571,4.449,2.058c3.597,1.073,7.153,1.415,10.547,1.125
	c-4.659,4.253-9.354,8.592-15.014,10.878C169.366,66.547,169.471,62.833,169.371,59.117z M175.09,53.438
	c-1.086-0.284-2.079-0.708-2.995-1.238c-0.184-0.214-0.408-0.412-0.703-0.576c-0.231-0.129-0.465-0.246-0.697-0.372
	c-8.217-6.414-8.563-23.008-5.995-31.379c2.404-6.738,6.488-12.413,13.654-14.344c5.854-1.578,13.743-0.603,18.488,3.405
	c9.538,8.058,8.338,20.771,5.508,30.629C198.839,51.791,186.674,56.469,175.09,53.438z"/>
</svg>
