<?xml version="1.0" encoding="utf-8"?>
<!-- Generator: Adobe Illustrator 16.0.4, SVG Export Plug-In . SVG Version: 6.00 Build 0)  -->
<!DOCTYPE svg PUBLIC "-//W3C//DTD SVG 1.1//EN" "http://www.w3.org/Graphics/SVG/1.1/DTD/svg11.dtd">
<svg version="1.1" id="Layer_3" xmlns="http://www.w3.org/2000/svg" xmlns:xlink="http://www.w3.org/1999/xlink" x="0px" y="0px"
	 width="137.46px" height="131.292px" viewBox="0 0 137.46 131.292" enable-background="new 0 0 137.46 131.292"
	 xml:space="preserve">
<g>
	<path fill="#16C6B7" d="M49.453,71.065c7.46-12.413,4.47-29.077-8.016-36.797C26.83,26.123,11.423,30.265,3.219,44.905
		c-6.596,11.77-2.618,26.158,7.953,34.105C23.736,88.455,41.665,84.021,49.453,71.065z M46.123,66.559
		c0.549-7.404-0.37-15.083-4.016-21.413c0.93-0.334,1.89-0.59,2.877-0.759C49.254,50.741,49.428,59.196,46.123,66.559z
		 M39.486,43.543c-5.36,2.519-9.694,7.264-12.33,12.595c-1.949-0.5-3.857-1.135-5.699-1.913c2.797-6.943,9.336-13.607,16.538-16.127
		c0.307,0.157,0.613,0.316,0.919,0.487c1.685,1.042,3.114,2.272,4.34,3.626c-1.106,0.273-2.18,0.641-3.217,1.093
		C39.838,43.343,39.65,43.428,39.486,43.543z M27.261,72.011c-7.632-0.455-15.158-3.445-21.248-8.062
		c-0.661-2.175-0.994-4.449-0.968-6.728c7.013,5.128,14.285,8.68,23.162,9.928C27.985,68.792,27.668,70.424,27.261,72.011z
		 M7.111,48.243c0.104-0.216,0.217-0.423,0.325-0.634c5.574,5.886,13.073,9.761,21.007,11.392c0.161,1.839,0.168,3.753,0.026,5.685
		c-8.921-1.219-16.191-5.032-23.188-10.382C5.587,52.213,6.182,50.162,7.111,48.243z M28.084,35.218
		c2.218,0.156,4.482,0.65,6.748,1.487c-6.888,3.225-12.79,9.657-15.63,16.476c-1.752-0.876-3.434-1.883-5.023-3.021
		c0.025-0.046,0.054-0.087,0.076-0.139C17.029,43.537,21.723,38.221,28.084,35.218z M22.718,35.512
		c-4.631,3.253-8.229,7.74-10.551,13.094c-1.211-1.005-2.354-2.096-3.426-3.267C12.24,39.87,17.181,36.548,22.718,35.512z
		 M7.805,68.182c5.651,3.51,12.111,5.764,18.74,6.278c-0.491,1.507-1.062,2.944-1.705,4.281c-3.504-0.345-7.011-1.47-10.211-3.415
		C11.693,73.541,9.412,71.046,7.805,68.182z M27.526,78.864c3.082-7.019,4.384-16.128,2.91-23.509
		c1.031-1.719,2.253-3.35,3.644-4.812c3.887,7.936,2.643,18.58,0.499,27.001C32.335,78.368,29.954,78.819,27.526,78.864z
		 M37.471,76.216c2.023-8.898,2.753-19.461-1.498-27.455c1.187-1.007,2.465-1.887,3.827-2.602c4.378,7.473,4.635,17.02,3.195,25.504
		C41.407,73.562,39.527,75.067,37.471,76.216z"/>
	<path fill="#16C6B7" d="M135.674,47.473c-6.144-2.53-5.646-12.75-5.874-18.138c-0.258-6.08-0.212-12.36-2.632-18.047
		c-3.873-9.097-19-17.968-22.57-4.069c-0.074,0.29-0.087,0.558-0.072,0.814c-2.332-0.152-4.403,0.505-5.428,2.367
		c-4.06-0.516-8.307-0.17-12.378,1.102c-13.441,4.879-18.235,17.951-16.433,31.359c0.834,6.206,3.385,12.127,7.307,16.561
		c-2.844,1.062-5.447,3.21-7.733,5.329c-6.394,5.927-11.536,13.058-18.132,18.793c-2.889,2.512-6.42,4.862-10.354,5.012
		c-4.355,0.166-8.11,1.552-11.071,4.824c-6.119,6.764-4.22,18.674,5.909,18.943c0.315,0.009,0.591-0.044,0.845-0.123
		c1.068,1.216,2.312,2.2,3.615,2.785c6.928,3.108,15.437-0.881,22.142-2.8c2.79-0.799,5.717-1.171,8.636-1.54
		c0.649,6.268,0.127,12.668,1.364,18.843c0.634,3.159,5.453,1.818,4.822-1.33c-1.187-5.914-0.742-12.156-1.294-18.214
		c0.122-0.021,0.246-0.039,0.368-0.062c5.974-1.094,11.887-2.566,17.697-4.327c5.577-1.689,10.79-4.04,15.396-7.325
		c0.468-0.148,0.852-0.448,1.129-0.84c2.319-1.772,4.474-3.797,6.426-6.114c-0.361,4.277-0.581,8.566-0.6,12.874
		c-0.026,5.939,0.5,11.862,0.53,17.8c0.017,3.224,5.017,3.225,5,0c-0.073-14.468-0.609-28.353,1.442-42.79
		c0.019-0.132,0.016-0.256,0.017-0.381c0.522-2.468,0.647-5.018,0.247-7.599c-0.99-6.378-6.293-10.063-12.038-11.863
		c3.627-3.745,6.2-8.543,7.626-13.708c3.872,5.175,9.008,8.232,16.092,6.686C138.353,51.709,137.737,48.323,135.674,47.473z
		 M88.05,16.324c12.101-3.78,24.111,1.516,27.343,14.215c0.428,1.679,0.663,3.395,0.729,5.114c-4.556,1.808-7.822-5.42-9.622-8.835
		c-0.796-1.511-2.763-1.512-3.926-0.506c-2.628,2.271-7.388,2.906-10.656,3.524c-5.082,0.963-11.012,1.135-15.647-1.445
		c-0.013-0.007-0.025-0.01-0.039-0.017C78.197,22.973,82.119,18.477,88.05,16.324z M34.655,96.012
		c2.54-2.808,6.485-2.203,9.827-2.817c5.081-0.934,9.521-4.856,13.158-8.262c0.666-0.623,1.316-1.263,1.961-1.908
		c2.984,2.185,6.106,4.172,9.162,6.258c-5.654,3.15-11.938,5.419-17.891,5.967c-0.82-0.023-1.644-0.047-2.473-0.068
		c-4.012-0.104-8.552,0.634-11.851,3.034c-2.903,2.112-3.353,5.492-2.417,8.711C30.111,105.271,32.042,98.9,34.655,96.012z
		 M87.531,102.317c-8.575,2.309-17.535,2.761-26.047,5.047c-5.702,1.531-12.092,4.774-18.103,3.316
		c-2.92-0.708-6.575-6.5-3.548-8.702c2.666-1.939,6.633-1.954,10.026-1.742c0.21,0.041,0.433,0.063,0.683,0.045
		c0.438,0.031,0.867,0.064,1.276,0.096c12.516,0.955,26.624-2.482,38.012-9.168c4.397,1.993,8.905,3.767,13.476,5.339
		C98.411,99.229,92.947,100.858,87.531,102.317z M119.317,74.341c0.032,0.936-0.041,1.861-0.19,2.775
		c-0.098,0.209-0.18,0.438-0.219,0.714c-0.038,0.266-0.072,0.532-0.109,0.799c-1.355,5.113-5.164,9.739-8.831,13.166
		c-0.457,0.427-0.927,0.831-1.403,1.224c-4.659-1.485-9.28-3.149-13.784-5.065c2.032-1.484,3.952-3.071,5.698-4.779
		c2.308-2.258-1.23-5.791-3.535-3.535c-6.72,6.575-15.394,10.695-24.428,13.2c3.512-2.061,6.786-4.425,9.648-6.963
		c2.417-2.144-1.132-5.666-3.535-3.535c-1.599,1.417-3.368,2.786-5.248,4.076c-3.375-2.434-6.975-4.562-10.342-7.007
		c2.516-2.744,4.955-5.564,7.506-8.267c2.212-2.343,6.996-8.116,10.995-7.473c1.059,6.125,5.349,12.07,11.977,11.939
		c7.313-0.146,12.201-5.802,14.509-12.171C113.832,64.669,119.083,67.619,119.317,74.341z M87.396,66.013
		c2.934,0.96,6.173,1.303,9.68,0.84c1.467-0.193,2.865-0.514,4.207-0.929c-1.372,1.981-3.237,3.538-5.818,4.351
		C91.722,71.452,88.867,69.154,87.396,66.013z M94.438,62.113c-3.399,0.223-6.311-0.58-8.774-2.067
		c-0.168-0.147-0.357-0.284-0.595-0.396c-0.026-0.013-0.054-0.02-0.08-0.032c-5.64-3.817-8.778-11.321-9.881-18.085
		c-0.447-2.74-0.475-5.515-0.1-8.188c5.323,2.471,11.262,2.296,17.018,1.513c3.618-0.491,7.958-1.369,11.426-3.232
		c2.837,4.834,7.062,10.12,12.326,9.396C113.996,51.737,105.816,61.366,94.438,62.113z M121.834,39.955
		c-0.287-0.495-0.662-0.815-1.071-1.005c0.269-3.27,0.099-6.567-0.549-9.74c-0.989-4.851-3.266-8.833-6.358-11.879l0.82,0.374
		c1.97-3.072-1.381-6.649-5.541-8.481c0.116-0.199,0.219-0.417,0.285-0.676c2.066-8.05,9.422-0.779,12.198,3.106
		c3.061,4.282,2.879,10.285,3.088,15.309c0.26,6.232,0.097,14.198,3.341,19.791C125.463,45.416,123.511,42.846,121.834,39.955z"/>
</g>
</svg>
