<?xml version="1.0" encoding="utf-8"?>
<!-- Generator: Adobe Illustrator 16.0.4, SVG Export Plug-In . SVG Version: 6.00 Build 0)  -->
<!DOCTYPE svg PUBLIC "-//W3C//DTD SVG 1.1//EN" "http://www.w3.org/Graphics/SVG/1.1/DTD/svg11.dtd">
<svg version="1.1" id="Layer_1" xmlns="http://www.w3.org/2000/svg" xmlns:xlink="http://www.w3.org/1999/xlink" x="0px" y="0px"
	 width="94.129px" height="191.486px" viewBox="0 0 94.129 191.486" enable-background="new 0 0 94.129 191.486"
	 xml:space="preserve">
<g>
	<path fill="#FFD16E" d="M93.869,81.974c-0.295-8.177-0.769-15.652-3.599-23.486c-2.159-5.979-6.229-13.654-12.962-15.351
		c-5.189-1.307-8.468,3.399-8.923,7.986c-0.382,3.845,0.193,7.673,1.954,11.122c2.383,4.668,6.954,6.875,7.549,12.562
		c0.821,7.856-1.307,16.866-3.325,24.378c-0.905,3.367-2.108,7.037-3.77,10.479c-0.149,0.211-0.263,0.444-0.346,0.687
		c-0.355,0.703-0.729,1.396-1.126,2.072C72.155,96.392,62.719,75.831,45,78.283c-14.049,2.594-21.438,16.694-20.055,30.152
		c0.38,3.695,1.471,7.082,3.121,10.037c-4.084-2.647-7.503-6.12-9.496-10.854c-3.561-8.46-3.215-19.491-2.886-28.468
		c0.195-5.298,1.397-9.262,4.227-13.646c1.621-2.511,2.229-5.628,1.452-8.516c-1.362-5.069-7.271-6.94-11.884-5.804
		c-7.105,1.751-8.835,10.02-8.417,16.249c0.382,5.679-0.61,11.748-0.906,17.437c-0.456,8.76,0.117,18.463,1.339,27.164
		c1.314,9.366,6.492,16.961,13.137,23.446c0.653,0.624,1.321,1.231,1.995,1.833c6.53,15.384,9.521,37.476,16.177,52.86
		c1.276,2.952,5.583,0.403,4.316-2.523c-6.545-15.13-9.6-36.928-15.884-52.139c-0.038-0.392-0.194-0.783-0.495-1.151
		c-0.258-0.489-0.604-0.804-0.997-0.967c-0.938-0.866-1.847-1.745-2.717-2.64c0.014-0.014,0.028-0.021,0.041-0.034
		c2.67-2.709,5.047-5.7,6.422-9.187c2.889,2.121,6.161,3.791,9.541,5.159c-0.004,0.15-0.005,0.304,0.018,0.465
		c1.174,8.593,8.769,14.189,17.209,14.205c9.75,0.017,14.917-8.36,15.083-17.146c3.362-2.372,6.049-5.522,8.216-9.105
		c2.633,2.36,5.377,4.59,7.944,7.019c-1.61,2.633-3.417,5.161-5.342,7.607c-0.476,0.402-0.791,1.011-0.78,1.829
		c0.143,11.349,7.694,44.446,11.648,55.079c1.114,2.994,5.948,1.699,4.822-1.33c-3.717-9.99-11.213-42.309-11.442-52.976
		c5.028-6.522,9.159-13.374,11.491-21.363C94.657,101.526,94.221,91.687,93.869,81.974z M46.33,83.105
		c20.437-2.829,25.534,36.41,6.804,41.918C26.871,132.745,21.043,87.773,46.33,83.105z M13.706,127.004
		c-3.526-4.411-6.11-9.337-7.226-15.293c-0.769-4.099-0.781-8.358-0.883-12.514c-0.112-4.61-0.696-9.422-0.458-14.014
		c0.298-5.725,0.596-11.449,0.893-17.174c0.241-4.625,0.259-13.556,7.494-12.096c7.075,1.429,0.105,9.617-1.143,12.813
		c-3.413,8.738-1.667,19.685-1.046,28.769c0.473,6.919,2.462,13.366,6.748,18.869c0.413,0.53,0.852,1.035,1.304,1.527
		C18.464,121.485,16.317,124.327,13.706,127.004z M50.258,136.362c-5.379,0.277-9.84-2.976-11.643-7.672
		c1.376,0.438,2.744,0.845,4.084,1.222c0.325,0.092,0.624,0.105,0.906,0.083c3.151,0.671,6.542,0.728,10.05,0.046
		c2.381-0.463,4.479-1.303,6.312-2.438C58.966,132.358,55.956,136.067,50.258,136.362z M87.684,107.26
		c-0.794,3.651-2.071,7.093-3.69,10.367c-2.644-2.403-5.412-4.665-8.028-7.104c3.235-7.127,4.91-15.26,5.924-22.316
		c0.959-6.672,2.202-14.285-1.01-20.505c-1.807-3.499-5.391-5.666-6.875-9.384c-1.077-2.697-1.27-6.969,0.227-9.572
		c2.737-4.764,9.878,7.957,10.536,9.383c3.393,7.352,3.785,15.066,4.071,22.968C89.156,89.893,89.572,98.584,87.684,107.26z"/>
	<path fill="#FFD16E" d="M57.559,3.633C44.239-4.169,26.626,1.046,19.785,14.964c-6.968,14.184,2.197,30.562,16.692,34.559
		c12.852,3.545,26.423-2.889,31.043-15.352C71.588,23.202,67.312,9.984,57.559,3.633z M61.853,14.786
		c-1.572-1.168-3.146-2.335-4.72-3.503c-0.496-1.161-0.994-2.323-1.491-3.485C58.321,9.635,60.399,12.043,61.853,14.786z
		 M56.253,37.351c-0.066,0.045-0.119,0.087-0.178,0.13c-2.34-0.403-4.682-0.805-7.022-1.208c-0.731-1.951-1.377-4.068-2.312-5.918
		c1.965-1.804,3.93-3.607,5.894-5.411c2.277,0.309,4.555,0.615,6.832,0.922c0.626,2.703,1.252,5.404,1.879,8.106
		C59.647,35.099,57.95,36.225,56.253,37.351z M52.518,6.197c0.764,1.783,1.525,3.567,2.289,5.351
		c-0.059,0.037-0.117,0.072-0.175,0.108c-1.814,1.109-3.629,2.219-5.444,3.329c-0.114-0.018-0.274-0.047-0.505-0.112
		c-0.735-0.209-1.47-0.416-2.205-0.625c-1.502-0.425-3.005-0.85-4.507-1.276c-0.009-0.022-0.016-0.044-0.023-0.067
		c-0.005-0.011-0.007-0.02-0.011-0.032c-0.27-0.758-0.539-1.517-0.808-2.275c-0.203-0.574-0.407-1.148-0.611-1.722
		c0.042-0.031,0.083-0.062,0.133-0.102c1.68-1.374,3.36-2.749,5.039-4.122C48.034,4.816,50.346,5.328,52.518,6.197z M45.332,28.921
		c0.046-0.003,0.048,0,0.005,0.002C45.335,28.922,45.334,28.922,45.332,28.921z M45.037,28.854
		c-0.331-0.068-0.678-0.108-1.004-0.136c-0.579-0.111-1.157-0.225-1.736-0.338c-1.126-0.218-2.251-0.438-3.375-0.656
		c-0.138-0.496-0.275-0.994-0.412-1.489c-0.566-2.048-1.132-4.096-1.697-6.144c0.709-0.649,1.345-1.526,1.951-2.15
		c0.844-0.871,1.688-1.743,2.534-2.614c1.434,0.606,3.656,0.841,4.579,1.102c0.864,0.244,1.748,0.638,2.616,0.774
		c0.811,2.082,1.621,4.164,2.432,6.246c-1.438,1.32-2.877,2.64-4.314,3.961C46.087,27.89,45.562,28.371,45.037,28.854z
		 M38.784,7.394c-2.144,0.057-4.287,0.116-6.433,0.174c2.968-1.658,6.341-2.641,9.772-2.904C41.011,5.573,39.898,6.482,38.784,7.394
		z M32.138,33.406c-1.81-0.388-3.62-0.776-5.431-1.164c-1.285-2.31-2.571-4.618-3.856-6.927c1.893-2.029,3.785-4.06,5.679-6.089
		c1.168,0.267,2.337,0.532,3.505,0.799c0.585,0.134,1.659,0.561,2.614,0.721c0.715,2.591,1.431,5.182,2.146,7.771
		C35.243,30.146,33.69,31.777,32.138,33.406z M27.016,11.825c0,1.904,0,3.809,0,5.712c-1.573,1.688-3.146,3.374-4.719,5.06
		c0.149-1.284,0.413-2.576,0.81-3.857C23.932,16.073,25.292,13.766,27.016,11.825z M25.207,35.994
		c0.401-0.503,0.802-1.006,1.202-1.508c1.844,0.396,3.688,0.79,5.53,1.186c2.238,2.364,4.475,4.729,6.712,7.093
		c0,0.891,0,1.781,0,2.673C32.806,44.315,28.079,40.745,25.207,35.994z M41.827,45.804c-0.309-0.011-0.611-0.036-0.915-0.061
		c0-0.924,0-1.849,0-2.773c2.603-1.49,5.205-2.98,7.808-4.472c2.156,0.372,4.312,0.741,6.468,1.111c0,1.002,0,2.004,0,3.006
		C51.342,44.899,46.656,45.975,41.827,45.804z M63.861,30.579c-0.146,0.667-0.332,1.305-0.537,1.928
		c-0.586-2.528-1.172-5.056-1.757-7.583c0.679-1.9,1.357-3.802,2.036-5.702C64.601,22.87,64.688,26.808,63.861,30.579z"/>
</g>
</svg>
