<?xml version="1.0" encoding="utf-8"?>
<!-- Generator: Adobe Illustrator 16.0.4, SVG Export Plug-In . SVG Version: 6.00 Build 0)  -->
<!DOCTYPE svg PUBLIC "-//W3C//DTD SVG 1.1//EN" "http://www.w3.org/Graphics/SVG/1.1/DTD/svg11.dtd">
<svg version="1.1" id="Layer_3" xmlns="http://www.w3.org/2000/svg" xmlns:xlink="http://www.w3.org/1999/xlink" x="0px" y="0px"
	 width="146.739px" height="141.293px" viewBox="0 0 146.739 141.293" enable-background="new 0 0 146.739 141.293"
	 xml:space="preserve">
<path fill="#FFA285" d="M146.076,118.415c-8.328-9.366-24.219-30.845-25.495-43.671c-0.024-0.243-0.083-0.462-0.158-0.668
	c0.039-9.298-2.16-17.911-9.832-21.14c4.102-4.253,6.577-10.133,6.685-17.051c0.016-0.988-0.01-2.003-0.068-3.032
	c0.161-0.032,0.327-0.087,0.487-0.096c8.386-0.465,17.636-8.514-2.311-12.432c0.377-0.677-0.102-2.715-0.19-3.533
	C113.475,0.956,85.503-7.162,73.89,10.019c-3.543-6.619-11.316-8.031-18.187-3.399c-11.457,7.723-5.066,25.503-13.122,35.444
	c-1.287,1.588-0.602,4.322,1.768,4.268c6.962-0.161,12.654-2.413,16.634-8.27c2.595-3.818,3.729-9.028,7.251-11.868
	c-0.262,1.332-0.475,2.659-0.625,3.956c-0.997,8.659,1.484,16.878,6.695,22.534c-6.982,1.853-13.193,4.608-19.071,9.218
	c-6.236,4.891-10.961,11.883-15.876,18.28c-0.131-0.068-0.259-0.145-0.394-0.206c-4.075-19.226-8.719-38.29-14.334-57.143
	c-1.817-6.104-3.354-12.575-5.829-18.443c-1.077-2.552-3.596-4.068-6.298-4.34C7.241-0.48-1.403,3.26,0.193,9.914
	c2.757,11.494,7.515,22.849,11.25,34.076c2.89,8.69,5.808,17.373,8.958,25.974c1.627,4.443,3.355,8.849,5.12,13.24
	c-0.661,1.109-1.024,2.409-0.937,3.888c0.113,5.67,2.659,13.955,8.574,16.049c-0.003,0.004-0.007,0.008-0.01,0.012
	c-1.987,2.654-3.072,6.099-3.293,9.374c-0.239,3.546,2.281,4.996,5.265,6.045c1.462,0.515,2.982,0.9,4.539,1.19
	c0.484,1.445,0.959,2.894,1.41,4.351c0.429,1.386,1.702,1.999,3.075,1.746c1.568-0.29,2.976-0.914,4.433-1.534
	c0.974-0.415,1.472-1.868,1.149-2.824c-0.102-0.3-0.194-0.603-0.293-0.903c3.67,0.059,7.333-0.052,10.769,0.017
	c7.096,0.142,14.257-0.49,21.294-1.332c1.001-0.12,2.003-0.248,3.004-0.385c0,0,0,0.002,0,0.003
	c0.028,0.077,2.796,7.772,4.605,20.252c0.18,1.245,1.249,2.142,2.471,2.142c0.119,0,0.24-0.008,0.361-0.025
	c1.367-0.198,2.314-1.467,2.116-2.833c-1.541-10.631-3.73-17.865-4.541-20.323c5.646-0.988,11.215-2.389,16.504-4.622
	c7.193-3.038,9.41-7.402,10.955-14.694c0.598-2.82,1.394-6.477,2.071-10.502c3.484,8.456,17.311,26.7,23.496,33.657
	C144.688,124.364,148.211,120.815,146.076,118.415z M59.697,29.761c-2.706,5.576-5.386,9.407-10.555,10.888
	c3.111-6.816,3.25-14.83,4.934-22.128c1.05-4.552,3.064-7.792,7.599-9.36c4.672-1.615,7.652,1.36,8.744,5.696
	c0.108,0.428,0.296,0.765,0.53,1.033c-0.432,1.216-0.789,2.528-1.092,3.907C64.759,21.265,61.955,25.107,59.697,29.761z
	 M72.514,31.346c0.078-1.754,0.354-3.523,0.769-5.271c7.891,5.812,26.354,8.488,38.874,7.467c0.025,0.314,0.058,0.64,0.08,0.948
	c0.942,13.266-8.911,20.933-21.413,20.729C77.679,55.006,71.991,43.09,72.514,31.346z M96.447,59.975
	c-1.276,2.281-4.257,3.398-6.866,3.562c-3.828,0.242-6.591-1.818-7.316-5.245c2.571,1.091,5.431,1.767,8.559,1.927
	C92.767,60.318,94.645,60.229,96.447,59.975z M42.539,89.35c0.496-1.859,0.824-3.678,0.242-5.403
	c2.44-3.036,4.824-6.122,7.287-9.139c1.074,2.466,2.266,4.875,3.552,7.24c-3.937,3.218-7.629,6.774-11.523,10.056
	C42.214,91.044,42.341,90.091,42.539,89.35z M63.072,81.405c4.178,7.873,9.081,15.204,14.444,22.315
	c-3.042,0.538-6.114,0.914-9.188,1.149c-4.061,0.312-13.375,1.393-16.188-2.175c-2.63-3.337-5.835-4.941-9.031-5.013
	C49.766,92.295,55.741,85.836,63.072,81.405z M27.725,75.25c-5.843-14.922-10.686-30.237-15.723-45.442
	c-1.647-4.973-3.298-9.943-4.955-14.912c-0.657-1.97-2.679-5.326-1.625-7.344C6.175,6.109,8.226,5.485,9.655,5.11
	c5.791-1.517,6.315,6.574,7.538,10.486c1.731,5.541,3.388,11.104,4.992,16.684c4.428,15.403,8.13,30.983,11.47,46.65
	c-1.399,0.039-2.816,0.343-4.104,0.897C28.938,78.304,28.323,76.779,27.725,75.25z M31.424,94.723
	c-1.272-2.286-1.788-5.043-1.84-7.631c-0.163-2.737,3.097-3.22,5.24-3.13c1.054,0.044,2.179,0.402,2.947,1.139
	c0.912,0.872,0.092,2.37-0.165,3.336c-0.47,1.762-0.546,3.664-0.74,5.472c-0.117,1.091-0.151,4.004-1.146,4.729
	C34.64,99.426,31.987,95.734,31.424,94.723z M113.071,92.884c-0.659,3.523-0.812,9.099-3.104,11.997
	c-4.558,5.765-14.852,7.147-21.553,8.364c-8.112,1.472-16.412,2.135-24.649,2.345c-7.717,0.197-15.74,0.163-23.374-0.953
	c-1.892-0.276-3.855-0.678-5.549-1.589c-0.336-0.181,0.499-3.082,0.747-3.839c1.619-4.937,6.177-8.843,10.967-5.073
	c1.971,1.552,2.731,3.557,5.167,4.396c1.995,0.688,4.122,0.94,6.203,1.21c5.444,0.704,11.12,0.247,16.531-0.515
	c5.065-0.712,10.052-1.754,14.932-3.295c3.22-1.018,7.519-2.315,9.389-5.387c1.505-2.473,2.267-5.318,2.6-8.301
	c3.936,0,7.872,0,11.808,0C113.146,92.457,113.111,92.671,113.071,92.884z M115.08,77.853c-0.157,3.162-0.553,6.307-1.046,9.437
	c-0.145-0.023-0.292-0.045-0.452-0.045c-3.999,0-7.999,0-11.998,0c-0.079-4.067-0.638-8.161-1.002-11.75
	c-0.322-3.176-5.326-3.207-5,0c0.645,6.35,1.489,13.063,0.18,19.379c-1.053,5.078-6.717,6.022-11.037,7.227
	c-0.612,0.171-1.226,0.33-1.842,0.484c-6.275-8.201-11.965-16.656-16.642-25.889c-0.591-1.167-1.65-1.435-2.606-1.16
	c-0.266,0.043-0.538,0.119-0.814,0.264c-1.81,0.945-3.523,2.022-5.176,3.184c-1.475-2.741-2.825-5.543-3.963-8.444
	c0.738-0.833,1.489-1.656,2.257-2.464c5.761-6.055,13.27-9.042,21.173-10.947c0.403,6.974,5.438,11.496,12.471,11.41
	c5.943-0.072,11.684-3.954,12.418-9.976c1.328-0.501,2.581-1.12,3.77-1.824C115.387,58.538,115.471,69.934,115.08,77.853z"/>
</svg>
